<svg width="24" height="24" viewBox="0 0 24 24" fill="none" xmlns="http://www.w3.org/2000/svg">
<g clip-path="url(#clip0_142_7)">
<path d="M4.35 7.79C4.35 7.79 4.103 7.39 3.813 7.562C3.673 7.646 3.439 7.88 3.16 8.22L3.417 8.70401C3.57469 8.47514 3.74741 8.25699 3.934 8.051C3.855 8.141 3.688 8.349 3.45 8.713C3.784 8.69 4.116 8.649 4.446 8.59C4.545 8.041 4.35 7.79 4.35 7.79ZM0.91 14.02C0.630994 14.7895 0.372899 15.5665 0.136 16.35C0.126175 16.3816 0.108579 16.4103 0.0848195 16.4333C0.0610605 16.4564 0.0318979 16.4731 0 16.482C0.23 15.722 0.458 15.006 0.687 14.358C0.544 14.325 0.341 14.365 0.093 14.468C0.263 14.338 0.432 14.226 0.593 14.216C0.542 14.205 0.41 14.159 0.233 13.996C0.402 14.059 0.549 14.09 0.655 14.068C0.633 13.786 0.481 13.498 0.281 13.208C0.28 13.206 0.561 13.369 0.664 13.538L0.666 13.515C0.683 13.295 0.714 13.077 0.759 12.861V12.859C0.793 12.685 0.835 12.511 0.886 12.337L0.952 12.114C0.98 12.027 1.012 11.938 1.045 11.844C1.155 11.543 1.28 11.248 1.42 10.96L1.456 10.888C1.584 10.631 1.72 10.377 1.864 10.128C1.94 9.995 2.018 9.866 2.095 9.738C2.102 9.731 2.106 9.721 2.112 9.712L2.11 9.71L2.118 9.697C2.354 9.317 2.606 8.947 2.872 8.589C2.94612 8.48864 3.02247 8.38995 3.101 8.293L3.159 8.221L3.415 8.703C3.32256 8.83558 3.2332 8.97029 3.147 9.107C2.975 9.383 2.812 9.666 2.66 9.953L2.443 10.367L2.221 9.928L2.441 10.368L2.434 10.383C2.39 10.473 2.344 10.563 2.301 10.653C2.27465 10.706 2.24898 10.7593 2.224 10.813L2.018 11.257C1.82038 11.7017 1.63035 12.1498 1.448 12.601L1.268 13.058C1.25496 13.0925 1.24162 13.1268 1.228 13.161C1.184 13.282 1.137 13.4 1.094 13.518V13.522L1.061 13.61L0.92 13.991L0.91 14.02ZM4.145 9.397C4.0461 9.59145 3.93452 9.77919 3.811 9.959C3.705 10.108 3.595 10.209 3.354 10.322L3.376 10.318C3.378 10.316 3.379 10.316 3.382 10.316C3.507 10.293 3.662 10.242 3.752 10.189C3.7649 10.1824 3.77699 10.1744 3.788 10.165C3.78294 10.195 3.77626 10.2247 3.768 10.254C3.762 10.279 3.752 10.308 3.742 10.339L3.73 10.372L3.694 10.464C3.66314 10.5407 3.62912 10.6161 3.592 10.69C3.584 10.709 3.574 10.728 3.564 10.747L3.54 10.786C3.51531 10.827 3.48721 10.8658 3.456 10.902L3.416 10.946C3.3805 10.982 3.34276 11.0158 3.303 11.047C3.21971 11.1085 3.12899 11.1592 3.033 11.198L3.05 11.196L3.114 11.185C3.243 11.154 3.365 11.1 3.475 11.025C3.337 11.3 3.149 11.522 2.847 11.637L2.899 11.63L2.949 11.619C3.0372 11.6016 3.12264 11.5723 3.203 11.532C3.1494 11.6983 3.08935 11.8624 3.023 12.024C2.952 12.198 2.878 12.354 2.798 12.494C2.70068 12.6694 2.58322 12.8328 2.448 12.981C2.172 13.279 1.743 13.521 1.421 13.561L1.437 13.564C1.803 13.64 2.182 13.517 2.433 13.24C2.40018 13.3037 2.36482 13.3661 2.327 13.427C2.179 13.667 2.009 13.813 1.673 13.964C1.903 13.977 2.023 13.923 2.121 13.799C2.105 13.833 2.08766 13.8664 2.069 13.899C1.854 14.255 1.435 14.377 0.952 14.355C1.05626 14.4508 1.11874 14.5836 1.126 14.725C1.052 14.591 0.974 14.474 0.875 14.428L0.991 14.094C0.99667 14.0757 1.00335 14.0576 1.011 14.04V14.034L1.143 13.664C1.1527 13.6411 1.16138 13.6177 1.169 13.594L1.172 13.584L1.342 13.13L1.349 13.108L1.517 12.673C1.578 12.514 1.641 12.361 1.701 12.213C1.824 11.912 1.951 11.613 2.083 11.316C2.135 11.2 2.184 11.088 2.235 10.98L2.285 10.872L2.382 10.667C2.41 10.604 2.441 10.545 2.47 10.484L2.497 10.426C2.499 10.424 2.5 10.42 2.499 10.415L2.505 10.414C2.579 10.264 2.648 10.123 2.718 9.991C2.868 9.701 3.027 9.415 3.192 9.134L3.205 9.111C3.293 8.963 3.376 8.831 3.451 8.715C3.784 8.692 4.116 8.651 4.446 8.595C4.435 8.647 4.424 8.702 4.408 8.76C4.38601 8.83597 4.36099 8.91103 4.333 8.985C4.27825 9.12598 4.21583 9.26385 4.146 9.398L4.145 9.397ZM6.496 10.071V14.667C6.496 14.947 6.455 15.194 6.371 15.399C6.29608 15.5947 6.17618 15.7701 6.021 15.911C5.86879 16.0496 5.68729 16.1522 5.49 16.211C5.287 16.274 5.06 16.306 4.816 16.306C4.59414 16.3082 4.37284 16.2834 4.157 16.232C4.14387 16.2283 4.13229 16.2205 4.124 16.2097C4.1157 16.1989 4.11114 16.1856 4.111 16.172V15.33C4.11095 15.3206 4.113 15.3113 4.11701 15.3028C4.12102 15.2943 4.12689 15.2868 4.13417 15.2808C4.14146 15.2749 4.14999 15.2706 4.15913 15.2684C4.16827 15.2662 4.1778 15.2661 4.187 15.268C4.264 15.286 4.349 15.301 4.437 15.313C4.599 15.337 4.813 15.343 4.977 15.303C5.05148 15.2847 5.1205 15.2488 5.17826 15.1984C5.23602 15.1479 5.28086 15.0844 5.309 15.013C5.3464 14.913 5.36406 14.8067 5.361 14.7V10.07C5.361 10.035 5.388 10.007 5.423 10.007H6.433C6.469 10.007 6.496 10.035 6.496 10.07V10.071ZM15.084 11.511C14.9394 11.3613 14.7621 11.247 14.566 11.177C14.3498 11.0982 14.1211 11.0595 13.891 11.063C13.637 11.063 13.401 11.104 13.189 11.188C12.981 11.27 12.794 11.398 12.644 11.565C12.4862 11.7452 12.3671 11.9559 12.294 12.184C12.207 12.4618 12.1655 12.7519 12.171 13.043C12.171 13.363 12.215 13.649 12.306 13.891C12.398 14.131 12.528 14.334 12.692 14.494C12.856 14.651 13.056 14.77 13.282 14.849C13.5212 14.9287 13.7719 14.9686 14.024 14.967C14.167 14.967 14.291 14.962 14.401 14.952C14.6092 14.9362 14.8144 14.8925 15.011 14.822C15.106 14.789 15.198 14.748 15.284 14.702C15.2941 14.6969 15.3026 14.689 15.3085 14.6793C15.3143 14.6695 15.3173 14.6584 15.317 14.647V13.877C15.3167 13.8665 15.3138 13.8563 15.3085 13.8473C15.3032 13.8382 15.2958 13.8306 15.2869 13.8252C15.2779 13.8197 15.2678 13.8165 15.2573 13.816C15.2469 13.8154 15.2365 13.8175 15.227 13.822C14.9689 13.9578 14.689 14.0475 14.4 14.087C14.298 14.097 14.196 14.102 14.093 14.101C13.9799 14.1035 13.8673 14.0849 13.761 14.046C13.6696 14.0096 13.5868 13.9544 13.518 13.884C13.4499 13.8071 13.3972 13.7178 13.363 13.621C13.331 13.5256 13.3115 13.4264 13.305 13.326H15.462C15.4785 13.326 15.4944 13.3195 15.5062 13.3079C15.518 13.2963 15.5247 13.2805 15.525 13.264V12.781C15.5293 12.5346 15.4907 12.2892 15.411 12.056C15.3432 11.8529 15.2315 11.6672 15.084 11.512V11.511ZM13.326 12.54C13.348 12.324 13.407 12.163 13.502 12.062C13.5521 12.0076 13.6133 11.9645 13.6814 11.9357C13.7495 11.9069 13.8231 11.893 13.897 11.895C13.9819 11.8931 14.0661 11.9109 14.143 11.947C14.213 11.98 14.273 12.03 14.319 12.091C14.3676 12.157 14.4033 12.2317 14.424 12.311C14.444 12.382 14.457 12.459 14.462 12.54H13.326ZM23.999 11.153V12.087C23.999 12.0964 23.9968 12.1057 23.9927 12.1141C23.9885 12.1226 23.9825 12.13 23.9751 12.1358C23.9677 12.1415 23.9591 12.1456 23.9499 12.1475C23.9407 12.1494 23.9311 12.1493 23.922 12.147C23.8396 12.1231 23.7536 12.1139 23.668 12.12L23.588 12.116C23.467 12.116 23.355 12.132 23.251 12.163C23.1566 12.1911 23.07 12.2407 22.998 12.308C22.9238 12.3821 22.868 12.4725 22.835 12.572C22.796 12.682 22.776 12.82 22.776 12.983V14.839C22.776 14.8557 22.7694 14.8717 22.7575 14.8836C22.7457 14.8954 22.7297 14.902 22.713 14.902H21.719C21.7023 14.902 21.6863 14.8954 21.6745 14.8836C21.6626 14.8717 21.656 14.8557 21.656 14.839V11.194C21.656 11.159 21.684 11.131 21.719 11.131H22.472C22.5 11.131 22.525 11.151 22.532 11.177L22.656 11.639C22.696 11.572 22.741 11.509 22.789 11.448C22.9102 11.2853 23.0812 11.1667 23.276 11.11C23.4165 11.0675 23.5638 11.0526 23.71 11.066C23.743 11.066 23.775 11.066 23.806 11.072C23.8342 11.0741 23.8622 11.0778 23.89 11.083C23.9124 11.084 23.9345 11.0877 23.956 11.094C23.9688 11.0977 23.98 11.1055 23.9879 11.1161C23.9958 11.1268 23.9991 11.1397 23.999 11.153ZM18.043 13.947C18.0513 13.9525 18.0581 13.9599 18.0628 13.9686C18.0675 13.9773 18.07 13.9871 18.07 13.997V14.738C18.0703 14.7494 18.0673 14.7605 18.0615 14.7703C18.0556 14.78 18.0471 14.7879 18.037 14.793C17.9214 14.8499 17.7991 14.8919 17.673 14.918C17.369 14.986 17.053 14.984 16.749 14.91C16.6072 14.8727 16.4765 14.8017 16.368 14.703C16.2532 14.5922 16.1656 14.4563 16.112 14.306C16.0484 14.1098 16.0187 13.9042 16.024 13.698V12H15.61C15.5936 11.9997 15.578 11.9931 15.5664 11.9816C15.5549 11.97 15.5483 11.9544 15.548 11.938V11.518C15.5478 11.5073 15.5505 11.4967 15.5558 11.4874C15.5611 11.4781 15.5687 11.4704 15.578 11.465L16.107 11.142L16.387 10.392C16.3915 10.3802 16.3994 10.3701 16.4098 10.363C16.4201 10.3558 16.4324 10.352 16.445 10.352H17.081C17.116 10.352 17.143 10.38 17.143 10.415V11.129H17.968C18.002 11.129 18.031 11.157 18.031 11.191V11.938C18.031 11.9547 18.0244 11.9707 18.0125 11.9826C18.0007 11.9944 17.9847 12.001 17.968 12.001H17.143V13.696C17.143 13.82 17.172 13.91 17.228 13.964C17.2589 13.9928 17.2953 14.015 17.335 14.0295C17.3747 14.0439 17.4168 14.0502 17.459 14.048C17.553 14.048 17.64 14.037 17.722 14.018C17.811 13.996 17.899 13.968 17.986 13.938C17.9954 13.9345 18.0054 13.9333 18.0154 13.9345C18.0253 13.9357 18.0348 13.9393 18.043 13.945V13.947ZM11.938 10.071V14.841C11.9375 14.8572 11.9308 14.8726 11.9192 14.8839C11.9077 14.8953 11.8922 14.9018 11.876 14.902H10.933C10.9163 14.902 10.9003 14.8954 10.8885 14.8836C10.8766 14.8717 10.87 14.8557 10.87 14.839V12.389L10.884 11.916L10.894 11.674L10.902 11.487L9.884 14.857C9.88011 14.8698 9.87215 14.8811 9.86133 14.889C9.85052 14.8969 9.83742 14.9011 9.824 14.901H8.894C8.88062 14.901 8.8676 14.8967 8.85681 14.8888C8.84602 14.8809 8.83803 14.8698 8.834 14.857L7.905 11.537C7.92118 11.8301 7.93218 12.1235 7.938 12.417C7.941 12.491 7.943 12.559 7.943 12.621V14.839C7.943 14.8557 7.93636 14.8717 7.92455 14.8836C7.91273 14.8954 7.89671 14.902 7.88 14.902H6.977C6.96029 14.902 6.94427 14.8954 6.93245 14.8836C6.92064 14.8717 6.914 14.8557 6.914 14.839V10.07C6.914 10.036 6.941 10.007 6.976 10.007H8.352C8.382 10.007 8.405 10.027 8.413 10.054L9.394 13.527L10.44 10.053C10.444 10.0403 10.452 10.0291 10.4628 10.0212C10.4736 10.0133 10.4866 10.009 10.5 10.009H11.876C11.91 10.009 11.938 10.036 11.938 10.07V10.071ZM21.073 11.511C20.9287 11.3614 20.7517 11.2471 20.556 11.177C20.3395 11.098 20.1104 11.0594 19.88 11.063C19.627 11.063 19.39 11.104 19.179 11.188C18.971 11.27 18.784 11.398 18.634 11.565C18.4762 11.7452 18.3571 11.9559 18.284 12.184C18.197 12.462 18.154 12.752 18.16 13.043C18.16 13.363 18.206 13.649 18.295 13.891C18.388 14.131 18.518 14.334 18.682 14.494C18.846 14.651 19.046 14.77 19.272 14.849C19.5112 14.9287 19.7619 14.9686 20.014 14.967C20.157 14.967 20.28 14.962 20.39 14.952C20.6985 14.9288 20.9991 14.8438 21.274 14.702C21.2841 14.6969 21.2926 14.689 21.2985 14.6793C21.3043 14.6695 21.3073 14.6584 21.307 14.647V13.877C21.3067 13.8665 21.3038 13.8563 21.2985 13.8473C21.2932 13.8382 21.2858 13.8306 21.2769 13.8252C21.2679 13.8197 21.2578 13.8165 21.2473 13.816C21.2369 13.8154 21.2265 13.8175 21.217 13.822C20.9586 13.958 20.6784 14.0477 20.389 14.087C20.288 14.097 20.185 14.102 20.083 14.101C19.9699 14.1036 19.8573 14.0849 19.751 14.046C19.6599 14.0096 19.5774 13.9544 19.509 13.884C19.4402 13.8073 19.3869 13.718 19.352 13.621C19.3203 13.5255 19.3012 13.4264 19.295 13.326H21.452C21.4685 13.326 21.4844 13.3195 21.4962 13.3079C21.508 13.2963 21.5147 13.2805 21.515 13.264V12.781C21.5193 12.5346 21.4807 12.2892 21.401 12.056C21.3328 11.8529 21.2208 11.6671 21.073 11.512V11.511ZM20.308 12.091C20.3569 12.157 20.3929 12.2316 20.414 12.311C20.434 12.382 20.447 12.459 20.452 12.54H19.315C19.337 12.324 19.397 12.163 19.492 12.062C19.5421 12.0076 19.6033 11.9645 19.6714 11.9357C19.7395 11.9069 19.8131 11.893 19.887 11.895C19.9719 11.8931 20.0561 11.9109 20.133 11.947C20.202 11.9803 20.262 12.0297 20.308 12.091ZM6.26 7.63H6.123L5.41 9.336H5.589L5.807 8.802H6.576L6.796 9.336H6.976L6.262 7.628H6.26V7.63ZM5.841 8.67L6.193 7.826L6.534 8.67H5.841ZM7.324 8.705H7.879C8.171 8.705 8.368 8.443 8.368 8.165C8.368 7.9 8.157 7.629 7.865 7.629H7.157V9.337H7.323L7.324 8.705ZM7.324 7.779H7.856C8.043 7.779 8.202 7.951 8.202 8.165C8.202 8.372 8.072 8.557 7.87 8.557H7.324V7.779ZM8.453 9.337L8.671 8.803H9.438L9.658 9.337H9.842L9.128 7.629H8.99L8.275 9.337H8.452H8.453ZM9.059 7.827L9.401 8.67H8.71L9.062 7.826H9.06L9.059 7.827ZM9.837 8.47C9.837 8.06 10.134 7.62 10.647 7.62C10.7769 7.61432 10.9056 7.64644 11.0176 7.71247C11.1296 7.7785 11.2201 7.8756 11.278 7.992L11.143 8.073C11.0975 7.97904 11.0256 7.90035 10.9361 7.84655C10.8466 7.79275 10.7434 7.76615 10.639 7.77C10.231 7.77 10.007 8.135 10.007 8.479C10.007 8.855 10.283 9.197 10.646 9.197C10.7547 9.1986 10.8616 9.16963 10.9546 9.11341C11.0476 9.05719 11.1229 8.97596 11.172 8.879L11.312 8.952C11.201 9.208 10.898 9.349 10.636 9.349C10.168 9.349 9.837 8.902 9.837 8.469V8.47ZM11.712 9.337H11.547V7.629H11.712V8.389H12.723V7.629H12.892V9.337H12.723V8.538H11.713V9.337H11.712ZM14.422 9.337H13.277V7.629H14.401V7.779H13.442V8.39501H14.278V8.537H13.441V9.187H14.423V9.337H14.422Z" fill="white"/>
</g>
<defs>
<clipPath id="clip0_142_7">
<rect width="24" height="24" fill="white"/>
</clipPath>
</defs>
</svg>
