<svg width="61" height="54" viewBox="0 0 61 54" fill="none" xmlns="http://www.w3.org/2000/svg">
<path d="M30.5 54C47.3462 54 61 42.9462 61 29.3137C61 20.859 55.7718 13.393 47.735 8.96432C44.4665 7.14241 41.8968 5.50651 39.7568 4.14836C35.7308 1.58239 33.245 0 30.5 0C27.7118 0 24.5678 2.00028 20.4198 4.64015C18.082 6.15994 15.6949 7.60211 13.2624 8.96432C5.22821 13.393 0 20.859 0 29.3137C0 42.9462 13.6538 53.9974 30.5 53.9974V54ZM26.9391 8.43686C27.788 6.50283 28.2176 4.41082 28.2049 2.29841C28.2049 1.92894 28.7183 1.82191 28.7895 2.22452C30.4619 9.31597 26.4969 12.8298 23.5613 14.0071C23.2461 14.1294 23.0555 13.6988 23.2995 13.4745C24.8576 12.0751 26.0986 10.3574 26.9391 8.43686ZM32.1699 8.17695C31.928 6.0997 31.2507 4.09721 30.1823 2.30096V2.26019C30.0069 1.94677 30.4009 1.59003 30.6525 1.82191C35.6393 7.20102 33.9745 12.1852 32.0657 14.6925C31.8573 14.955 31.4811 14.6849 31.5853 14.3715C32.2126 12.3708 32.4118 10.26 32.1699 8.17695ZM36.6839 6.74745C35.6608 4.93832 34.2639 3.3693 32.5867 2.14553V2.10985C32.302 1.89326 32.5257 1.41166 32.8765 1.55436C39.4721 4.32418 39.927 9.65742 39.1264 12.784C39.1096 12.8581 39.065 12.9229 39.0019 12.9649C38.9415 13.0076 38.8667 13.0247 38.7938 13.0122C38.7209 12.9998 38.6559 12.959 38.613 12.8986C38.5694 12.8373 38.5495 12.7621 38.5571 12.6871C38.3538 10.5977 37.7157 8.57425 36.6839 6.74745ZM23.7544 8.17695C22.1862 9.56823 20.496 10.1135 18.511 10.7251C18.2136 10.7251 18.0153 10.5263 18.1145 10.2639C22.5675 7.94762 24.1535 6.062 25.7369 3.18516C25.7369 3.18516 26.1309 2.88448 26.2148 3.40176C26.2148 4.17639 25.3277 6.78822 23.7544 8.17695ZM36.323 36.8103C35.9622 38.3469 35.1292 39.7311 33.9414 40.7676C33.062 41.6492 31.9081 42.2072 30.6728 42.3474C29.4004 42.2269 28.2087 41.6687 27.3 40.7676C26.1233 39.7271 25.3011 38.3432 24.949 36.8103C24.9373 36.7194 24.9459 36.627 24.974 36.5398C25.0021 36.4526 25.0491 36.3727 25.1117 36.3058C25.1748 36.2411 25.2517 36.1916 25.3367 36.1612C25.4217 36.1307 25.5125 36.12 25.6022 36.13H35.6799C35.7687 36.12 35.8586 36.1309 35.9424 36.1619C36.0262 36.1928 36.1017 36.243 36.1628 36.3083C36.2899 36.4434 36.3484 36.6268 36.323 36.8103ZM22.4505 31.2656C21.5288 31.8933 20.4158 32.1748 19.3074 32.0606C18.199 31.9464 17.1663 31.4438 16.3912 30.6413C15.6062 29.8208 15.1206 28.7587 15.0131 27.6269C14.9056 26.4952 15.1826 25.3602 15.799 24.406C16.3251 23.5931 17.0775 22.9638 17.9543 22.5892C18.8295 22.2149 19.7978 22.1171 20.7298 22.3089C21.6601 22.5 22.5166 22.9739 23.1876 23.6619C23.8604 24.3638 24.3163 25.2459 24.5003 26.2017C24.6843 27.1575 24.5885 28.1462 24.2246 29.0487C23.8632 29.9456 23.2462 30.7183 22.4505 31.2656ZM44.042 31.2783C43.119 31.9024 42.006 32.18 40.8989 32.062C39.7919 31.9441 38.7618 31.4383 37.9903 30.6336C37.0945 29.6978 36.596 28.4499 36.6 27.1529C36.6 26.1744 36.8796 25.2163 37.4133 24.4035C37.9395 23.5906 38.6918 22.9587 39.5712 22.5866C40.4478 22.2141 41.4169 22.1181 42.3493 22.3114C43.282 22.5051 44.1386 22.979 44.8096 23.6721C45.4804 24.3769 45.9334 25.2613 46.1138 26.2186C46.2942 27.1758 46.1944 28.165 45.8263 29.0665C45.4615 29.9637 44.8409 30.7331 44.042 31.2783Z" fill="white"/>
</svg>
