<svg width="32" height="32" viewBox="0 0 32 32" fill="none" xmlns="http://www.w3.org/2000/svg">
<g clip-path="url(#clip0_101_85)">
<path d="M16 0C7.164 0 0 7.164 0 16C0 24.836 7.164 32 16 32C24.836 32 32 24.836 32 16C32 7.164 24.836 0 16 0ZM9.28267 10.24C10.288 10.24 11.0653 10.972 11.156 11.84C11.248 12.6173 10.928 13.3027 10.06 13.7147C9.60267 13.9427 9.42 13.944 9.328 13.8067C9.28267 13.7147 9.328 13.624 9.42 13.532C10.2427 12.8467 10.2427 12.2973 10.1507 11.5213C10.1053 11.0173 9.74 10.6973 9.37333 10.6973C7.77333 10.6973 5.488 14.2627 5.808 16.8693C5.94533 17.8747 6.54 19.064 7.82 19.064C8.23067 19.064 8.68667 18.9267 9.1 18.744C9.76667 18.392 10.1653 18.1173 10.5627 17.6773C10.4653 16.4973 11.5013 14.9493 13.0307 14.9493C13.7173 14.9493 14.2653 15.2227 14.3107 15.7267C14.4013 16.412 13.808 16.5027 13.6253 16.5027C13.4427 16.5027 13.1213 16.4573 13.1213 16.276C13.076 16.092 13.5333 16.1827 13.488 15.772C13.4413 15.4973 13.168 15.4067 12.8933 15.4067C11.9333 15.4067 11.3853 16.732 11.5213 17.5547C11.568 17.9213 11.7507 18.2867 12.1173 18.2867C12.3907 18.2867 12.8027 17.8733 12.94 17.28C13.0307 16.8693 13.3973 16.5947 13.7173 16.5947C13.8533 16.5947 13.944 16.64 13.9907 16.8227V17.0067C13.9453 17.1893 13.808 17.7373 13.8547 17.8747C13.8547 17.9667 13.9 18.1027 14.0813 18.1027C14.204 18.1027 14.6627 17.8627 15.1173 17.4907C15.2733 16.704 15.4547 15.76 15.4547 15.6813C15.5 15.3613 15.6373 15.0413 16.2773 15.0413C16.4147 15.0413 16.5053 15.0867 16.5507 15.2693V15.4533L16.3693 16.276C16.9627 15.4987 17.832 14.9507 18.38 14.9507C18.6093 14.9507 18.792 15.0867 18.792 15.316C18.792 15.4533 18.792 15.6813 18.7 15.9107C18.5173 16.4133 18.288 17.1907 18.1507 17.876C18.1507 18.0587 18.1973 18.2413 18.4267 18.2413C18.6547 18.2413 19.34 17.9667 19.888 17.236L19.8973 17.2307C19.8947 17.14 19.888 17.052 19.888 16.9613C19.888 16.4133 19.9347 15.956 20.0267 15.636C20.1173 15.2707 20.5747 14.9507 20.8493 14.9507C20.9867 14.9507 21.1227 15.0427 21.1227 15.1787C21.1227 15.2253 21.1227 15.316 21.0773 15.3613C20.8947 15.956 20.7573 16.504 20.7573 17.0533C20.7573 17.3733 20.8027 17.8293 20.8933 18.104C20.8933 18.1493 20.94 18.196 20.9867 18.196C21.0773 18.196 21.7173 17.6027 22.1733 16.8253C21.7627 16.5507 21.5333 16.0933 21.5333 15.5453C21.5333 14.5853 22.128 14.0827 22.6773 14.0827C23.1347 14.0827 23.5 14.4027 23.5 15.0427C23.5 15.4533 23.3627 15.9093 23.1347 16.3227H23.2707C23.4157 16.3274 23.5601 16.3013 23.6943 16.2461C23.8285 16.191 23.9495 16.108 24.0493 16.0027C24.0913 15.9334 24.1537 15.8789 24.228 15.8467C24.6747 15.28 25.3347 14.86 26.108 14.86C26.748 14.86 27.34 15.1333 27.3867 15.636C27.4773 16.3227 26.8827 16.46 26.7 16.46L26.6973 16.4573C26.5133 16.4573 26.1947 16.4107 26.1947 16.228C26.1947 16.0453 26.6067 16.1373 26.56 15.7267C26.5147 15.452 26.24 15.36 25.9653 15.36C25.0507 15.36 24.4587 16.548 24.5947 17.508C24.64 17.8747 24.8227 18.2853 25.188 18.2853C25.4627 18.2853 25.8747 17.8747 26.0573 17.28C26.148 16.9147 26.5147 16.5947 26.8347 16.5947C26.972 16.5947 27.0613 16.64 27.108 16.8227C27.108 16.9147 27.108 17.0973 26.9253 17.692C26.6987 18.1027 26.6973 18.332 26.7427 18.5147C26.788 18.88 26.9707 19.1547 27.1547 19.292C27.2 19.3373 27.2453 19.428 27.2453 19.428C27.2453 19.52 27.2 19.612 27.0627 19.612C27.0173 19.612 26.972 19.612 26.9253 19.5653C26.24 19.292 25.9653 18.8347 25.8733 18.3773C25.6 18.6973 25.28 18.88 24.9133 18.88C24.32 18.88 23.7267 18.332 23.6333 17.6453C23.6071 17.3531 23.6412 17.0586 23.7333 16.78C23.4627 16.9533 23.1707 17.0507 22.9027 17.0507H22.676C22.08 17.92 21.44 18.5147 20.9827 18.788C20.8274 18.8707 20.6557 18.918 20.48 18.9267C20.3893 18.9267 20.252 18.88 20.2067 18.788C20.08 18.5853 19.9987 18.2653 19.9493 17.8987C19.308 18.6013 18.4227 18.972 18.012 18.972C17.5547 18.972 17.2813 18.6973 17.236 18.2387V17.7373C17.372 16.732 17.7387 16.1373 17.7387 15.9547C17.7374 15.9305 17.7274 15.9077 17.7104 15.8905C17.6934 15.8733 17.6708 15.8629 17.6467 15.8613C17.3267 15.8613 16.276 16.96 16.092 17.692L15.9547 18.2853C15.864 18.6973 15.452 18.972 15.1787 18.972C15.0413 18.972 14.9493 18.9253 14.904 18.7427V18.56L14.9653 18.2493C14.3853 18.6627 13.8053 18.9267 13.532 18.9267C13.1213 18.9267 12.892 18.6973 12.8467 18.3773C12.572 18.7427 12.2533 18.9267 11.8413 18.9267C11.372 18.9267 10.9133 18.6067 10.692 18.136C10.3667 18.5027 9.99467 18.8733 9.556 19.1547C8.916 19.5667 8.18533 19.8867 7.316 19.8867C6.54 19.8867 5.85333 19.4747 5.488 19.1093C4.93867 18.6067 4.62 17.8293 4.57333 17.0973C4.3 14.8573 5.67067 11.9773 7.77333 10.6973C8.27733 10.424 8.78 10.24 9.28267 10.24ZM22.3093 14.628C22.1707 14.628 22.08 14.8573 22.08 15.0853C22.08 15.4507 22.2627 15.8627 22.492 16.092C22.5814 15.8426 22.6274 15.5796 22.628 15.3147C22.628 14.8573 22.4467 14.628 22.3093 14.628Z" fill="#D9D9D9"/>
</g>
<defs>
<clipPath id="clip0_101_85">
<rect width="32" height="32" fill="white"/>
</clipPath>
</defs>
</svg>
