<svg width="24" height="24" viewBox="0 0 24 24" fill="none" xmlns="http://www.w3.org/2000/svg">
<path d="M11.998 0C11.1338 0 10.3164 0.1101 9.8535 0.1934V0.1954C4.1731 1.2088 0 6.1173 0 11.9823C0 13.1088 0.1573 14.2151 0.4648 15.2851C0.5035 15.4304 0.5563 15.5844 0.6016 15.7324C2.2086 20.5974 6.8261 23.9584 11.9941 23.9609C12.0592 23.9609 12.2459 23.9606 12.4961 23.9491C13.3525 23.9138 14.1189 23.3757 14.4473 22.5801L14.9209 21.4257L20.4258 8.0235H18.621L16.3046 13.8945L13.9706 8.0235H12.0624L15.3358 16.0352C14.5243 18.0054 13.7106 19.9747 12.9003 21.9453C12.8195 22.1398 12.6348 22.2737 12.4276 22.2813C12.2836 22.2863 12.1426 22.2911 11.996 22.2911C7.4112 22.2911 3.3288 19.2216 2.0683 14.8262C1.80341 13.9015 1.66928 12.9444 1.6698 11.9825C1.6698 6.8938 5.3219 2.6421 10.2733 1.8185C10.4947 1.7815 11.1618 1.6739 11.9979 1.6739C16.4145 1.6739 20.2669 4.4059 21.7284 8.5215C21.7842 8.6655 21.8261 8.8145 21.8749 8.961C22.1739 9.9356 22.328 10.9497 22.328 11.9825C22.328 16.5521 19.3867 20.5151 15.0116 21.8438L15.4979 23.4434C20.5829 21.8974 23.9974 17.2916 23.9999 11.9844C23.9999 10.4353 23.7016 9.1138 23.3495 8.0918C23.3063 7.9706 23.2622 7.8496 23.2186 7.7285H23.2166C21.4577 3.0759 17.0444 0 11.998 0ZM8.4336 7.8711C7.2337 7.8711 6.2589 8.2563 5.4531 9.0469C4.6524 9.8325 4.2481 10.8205 4.2481 11.9825C4.2481 13.1369 4.6549 14.1193 5.4531 14.9024C6.2589 15.693 7.2337 16.0762 8.4336 16.0762C10.1386 16.0762 11.5892 15.1212 12.2207 13.5879L12.2539 13.5059L10.625 12.9512C10.457 13.4075 9.8698 14.4395 8.4336 14.4395C7.7591 14.4395 7.1899 14.2051 6.7402 13.7403C6.283 13.2704 6.0527 12.6771 6.0527 11.9825C6.0527 11.2827 6.278 10.7016 6.7402 10.209C7.1924 9.7442 7.7592 9.5078 8.4336 9.5078C9.8716 9.5078 10.4574 10.5893 10.627 10.9961L12.254 10.4434L12.2207 10.3594C11.5917 8.8236 10.1387 7.8711 8.4336 7.8711Z" fill="white"/>
</svg>
