<svg width="24" height="24" viewBox="0 0 24 24" fill="none" xmlns="http://www.w3.org/2000/svg">
<g clip-path="url(#clip0_142_58)">
<path d="M23.6005 9.59268L23.5668 9.50648L20.3001 0.98138C20.2336 0.814244 20.1159 0.672459 19.9639 0.57638C19.8117 0.481988 19.6343 0.436545 19.4555 0.446183C19.2768 0.455822 19.1052 0.520079 18.9642 0.63028C18.8246 0.743626 18.7233 0.897228 18.6742 1.07018L16.4687 7.81818H7.53755L5.33185 1.07018C5.28401 0.896268 5.18252 0.741877 5.04185 0.62898C4.90073 0.51881 4.72921 0.454588 4.55044 0.444985C4.37167 0.435382 4.19426 0.48086 4.04215 0.57528C3.89046 0.671721 3.77286 0.813345 3.70595 0.98018L0.433251 9.50148L0.400751 9.58768C-0.069501 10.8163 -0.127554 12.1646 0.235344 13.4291C0.598243 14.6936 1.36242 15.8059 2.41265 16.5982L2.42395 16.6069L2.45395 16.6282L7.42995 20.3546L9.89195 22.2179L11.3915 23.35C11.5669 23.4832 11.7811 23.5553 12.0013 23.5553C12.2215 23.5553 12.4357 23.4832 12.6112 23.35L14.1107 22.2179L16.5726 20.3546L21.5786 16.6057L21.5911 16.5957C22.6389 15.8032 23.4013 14.6921 23.7637 13.4293C24.126 12.1665 24.0687 10.8202 23.6005 9.59268Z" fill="white"/>
</g>
<defs>
<clipPath id="clip0_142_58">
<rect width="24" height="24" fill="white"/>
</clipPath>
</defs>
</svg>
