<svg width="51" height="51" viewBox="0 0 51 51" fill="none" xmlns="http://www.w3.org/2000/svg">
<g clip-path="url(#clip0_169_4)">
<rect width="51" height="51" fill="white"/>
<path d="M26.4456 0.00423261C22.1202 5.36077 18.3788 11.1637 15.2851 17.3145C14.8754 16.9568 14.4819 16.581 14.1058 16.1882C13.291 15.0663 12.4369 13.9733 11.5451 12.9115C10.4514 14.2806 9.55649 15.7972 8.88677 17.4165C7.25539 21.4085 6.21868 25.6184 5.80977 29.9115C5.55942 32.3913 5.80355 34.8962 6.52802 37.281C9.31602 44.676 14.5903 49.1661 22.3486 50.7471C28.8405 51.6779 34.578 50.0395 39.5548 45.8341C45.2434 40.3304 46.6926 33.8619 43.9046 26.4286C42.1708 22.2761 40.0447 18.2985 37.5551 14.5499C34.1976 9.57382 30.611 4.75623 26.8069 0.112608C26.7578 0.0699871 26.7002 0.0382854 26.6379 0.0196019C26.5756 0.000918462 26.5101 -0.00432029 26.4456 0.00423261ZM25.7316 8.30448C29.4925 12.667 32.899 17.3228 35.9189 22.2275C36.8709 23.8574 37.655 25.5637 38.2734 27.3487C39.5611 32.419 38.1799 36.601 34.1275 39.8947C30.2069 42.653 25.9038 43.4711 21.2245 42.3512C16.1755 40.7851 13.2558 37.3894 12.4674 32.164C12.2739 30.5407 12.4497 28.8946 12.9816 27.3487C13.7424 25.4192 14.6604 23.579 15.7441 21.8216L18.8169 17.3145C21.142 14.3267 23.447 11.3233 25.7316 8.30448Z" fill="black"/>
</g>
<defs>
<clipPath id="clip0_169_4">
<rect width="51" height="51" fill="white"/>
</clipPath>
</defs>
</svg>
