<svg width="24" height="24" viewBox="0 0 24 24" fill="none" xmlns="http://www.w3.org/2000/svg">
<g clip-path="url(#clip0_142_60)">
<path d="M7.15705 22.201C7.15705 22.678 6.96923 23.1354 6.63488 23.4727C6.30053 23.8101 5.84702 23.9997 5.37405 24C4.9009 24 4.44713 23.8105 4.11257 23.4731C3.778 23.1357 3.59005 22.6781 3.59005 22.201C3.59005 21.7239 3.778 21.2663 4.11257 20.9289C4.44713 20.5915 4.9009 20.402 5.37405 20.402C5.84702 20.4023 6.30053 20.5919 6.63488 20.9293C6.96923 21.2666 7.15705 21.7241 7.15705 22.201ZM20.582 1.427C20.5822 1.61448 20.5457 1.80015 20.4746 1.9734C20.4036 2.14664 20.2994 2.30407 20.168 2.43669C20.0365 2.5693 19.8805 2.6745 19.7088 2.74628C19.537 2.81806 19.353 2.855 19.167 2.855C18.9811 2.85513 18.7969 2.81829 18.625 2.74657C18.4532 2.67485 18.297 2.56967 18.1655 2.43704C18.034 2.30442 17.9297 2.14694 17.8586 1.97363C17.7875 1.80032 17.7509 1.61457 17.751 1.427C17.751 1.23952 17.7877 1.05388 17.8589 0.880678C17.93 0.707481 18.0343 0.550125 18.1658 0.417602C18.2973 0.28508 18.4535 0.179989 18.6252 0.108335C18.797 0.0366805 18.9811 -0.000132139 19.167 3.56386e-07C19.5423 3.56386e-07 19.9022 0.150345 20.1676 0.417959C20.433 0.685573 20.582 1.04854 20.582 1.427ZM4.99205 3.336C4.99152 3.61555 4.88112 3.88348 4.68504 4.08106C4.48897 4.27863 4.22321 4.38973 3.94605 4.39C3.66854 4.39 3.40238 4.27888 3.20606 4.08106C3.00974 3.88324 2.89931 3.6149 2.89905 3.335C2.89931 3.0551 3.00974 2.78676 3.20606 2.58894C3.40238 2.39112 3.66854 2.28 3.94605 2.28C4.22356 2.28027 4.48961 2.39164 4.68574 2.58965C4.88188 2.78766 4.99205 3.05611 4.99205 3.336ZM12.328 4.853C16.097 4.853 19.388 6.233 21.096 8.277C20.4625 6.4469 19.2771 4.85829 17.703 3.73C16.1351 2.6068 14.2548 2.00255 12.326 2.002C10.3976 2.00276 8.51776 2.607 6.95005 3.73C5.37564 4.85814 4.18984 6.44677 3.55605 8.277C5.26905 6.237 8.56005 4.853 12.328 4.853ZM12.329 18.148C8.56105 18.148 5.26905 16.767 3.56105 14.723C4.19484 16.5532 5.38064 18.1419 6.95505 19.27C8.52225 20.3935 10.4017 20.9984 12.33 21C14.2589 20.9992 16.1392 20.3946 17.707 19.271C19.2811 18.1427 20.4665 16.5541 21.1 14.724C19.388 16.768 16.097 18.149 12.328 18.149L12.329 18.148Z" fill="white"/>
</g>
<defs>
<clipPath id="clip0_142_60">
<rect width="24" height="24" fill="white"/>
</clipPath>
</defs>
</svg>
