<svg width="24" height="24" viewBox="0 0 24 24" fill="none" xmlns="http://www.w3.org/2000/svg">
<g clip-path="url(#clip0_142_62)">
<path d="M24 23.646H0L7.99 6.603L12.803 10.141L19.08 0.354004L24 23.646ZM15.2 19.965H15.252C15.8459 19.9661 16.417 19.7367 16.845 19.325C17.0645 19.1259 17.239 18.8825 17.3571 18.6107C17.4753 18.339 17.5342 18.0453 17.53 17.749C17.5397 17.4639 17.4855 17.1802 17.3712 16.9187C17.257 16.6572 17.0858 16.4247 16.87 16.238C16.506 15.8727 16.0155 15.6615 15.5 15.648H15.46C15.3927 15.6476 15.3257 15.6567 15.261 15.675L16.528 13.792L15.518 13.087L15.041 13.792L13.821 15.656C13.611 15.966 13.435 16.238 13.326 16.426C13.214 16.626 13.116 16.836 13.036 17.051C12.9448 17.2798 12.898 17.5238 12.898 17.77C12.8951 18.0626 12.9538 18.3525 13.0703 18.6209C13.1867 18.8893 13.3584 19.1302 13.574 19.328C13.996 19.739 14.563 19.969 15.152 19.968L15.2 19.965ZM9.835 17.938L11.233 19.916H12.729L11.084 17.621L12.544 15.592L11.574 14.921L11.147 15.486L9.833 17.339V13.614L8.523 12.546V19.916H9.833V17.936L9.835 17.938ZM15.202 18.73C14.9465 18.73 14.7014 18.6285 14.5207 18.4478C14.34 18.2671 14.2385 18.022 14.2385 17.7665C14.2385 17.511 14.34 17.2659 14.5207 17.0852C14.7014 16.9045 14.9465 16.803 15.202 16.803H15.211C15.3379 16.8031 15.4634 16.8288 15.5801 16.8786C15.6968 16.9285 15.8022 17.0014 15.89 17.093C15.9824 17.1779 16.0559 17.2812 16.1058 17.3962C16.1558 17.5113 16.1811 17.6356 16.18 17.761C16.1771 18.0183 16.0729 18.2641 15.89 18.4451C15.7072 18.6261 15.4603 18.7278 15.203 18.728L15.202 18.73Z" fill="white"/>
</g>
<defs>
<clipPath id="clip0_142_62">
<rect width="24" height="24" fill="white"/>
</clipPath>
</defs>
</svg>
