<svg width="52" height="50" viewBox="0 0 52 50" fill="none" xmlns="http://www.w3.org/2000/svg">
<path d="M15.9174 35.6611H14.5096C14.4598 33.3762 14.3227 31.2282 14.0986 29.2154H14.0861L11.9427 35.6611H10.8709L8.74028 29.2154H8.72804C8.56998 31.1479 8.47042 33.2964 8.42907 35.6611H7.14587C7.22857 32.7856 7.43641 30.0898 7.76857 27.5735H9.51341L11.5442 33.5162H11.5567L13.5999 27.5735H15.2694C15.635 30.5209 15.851 33.2169 15.9174 35.6611ZM22.0227 29.6941C21.4495 32.6849 20.6933 34.858 19.7548 36.2146C19.0235 37.2588 18.2224 37.7814 17.35 37.7814C17.1174 37.7814 16.8304 37.7139 16.4903 37.58V36.8588C16.6565 36.8818 16.8516 36.8949 17.0757 36.8949C17.4833 36.8949 17.8108 36.7871 18.0605 36.5711C18.3592 36.3079 18.5086 36.0121 18.5086 35.6849C18.5086 35.4604 18.3921 35.0016 18.1598 34.3069L16.6149 29.6938H17.9979L19.1068 33.144C19.3559 33.9274 19.4599 34.4743 19.4182 34.7858C20.0246 33.2287 20.4482 31.5308 20.6895 29.6935H22.0227V29.6941Z" fill="white"/>
<path d="M40.7619 35.661H36.7629V27.5734H38.1082V34.6655H40.7619V35.661ZM35.7161 35.8564L34.1699 35.1227C34.307 35.0144 34.4381 34.8972 34.5562 34.7615C35.2134 34.0191 35.5412 32.9213 35.5412 31.4672C35.5412 28.7916 34.4493 27.4531 32.2646 27.4531C31.1933 27.4531 30.3576 27.7926 29.7599 28.472C29.1032 29.2148 28.7754 30.3087 28.7754 31.755C28.7754 33.1766 29.0659 34.2195 29.6473 34.881C30.1791 35.4803 30.9808 35.7803 32.0529 35.7803C32.4528 35.7803 32.8198 35.7332 33.1541 35.6383L35.1672 36.7651L35.7161 35.8564ZM30.7071 34.0427C30.3666 33.5159 30.1963 32.6699 30.1963 31.5036C30.1963 29.4672 30.8396 28.4479 32.1277 28.4479C32.801 28.4479 33.2945 28.6917 33.61 29.1782C33.9501 29.7058 34.1212 30.5441 34.1212 31.6943C34.1212 33.7474 33.4773 34.774 32.19 34.774C31.5165 34.7743 31.023 34.5313 30.7071 34.0427ZM28.1892 33.4194C28.1892 34.1052 27.9275 34.6678 27.4046 35.1086C26.8812 35.5475 26.1794 35.7675 25.2999 35.7675C24.4772 35.7675 23.6796 35.5148 22.9076 35.0121L23.2691 34.3176C23.9334 34.6375 24.5349 34.7965 25.0749 34.7965C25.5817 34.7965 25.9778 34.6885 26.2651 34.4743C26.5521 34.2593 26.7232 33.9577 26.7232 33.5763C26.7232 33.0958 26.3747 32.6851 25.7354 32.3411C25.1459 32.0299 23.9669 31.3791 23.9669 31.3791C23.3279 30.9313 23.008 30.4505 23.008 29.6584C23.008 29.0029 23.2465 28.4738 23.724 28.0712C24.2019 27.6671 24.8186 27.4657 25.5746 27.4657C26.3554 27.4657 27.0651 27.6668 27.7044 28.0649L27.3801 28.7597C26.8333 28.5363 26.2936 28.4246 25.7613 28.4246C25.3301 28.4246 24.9971 28.5243 24.7656 28.7244C24.5322 28.9237 24.3883 29.1787 24.3883 29.4916C24.3883 29.9697 24.7441 30.3856 25.4008 30.7364C25.9982 31.0482 27.2066 31.7102 27.2066 31.7102C27.8619 32.1573 28.1892 32.6336 28.1892 33.4194Z" fill="white"/>
<path d="M42.4507 24.8647C41.6373 24.8448 41.0076 24.9235 40.479 25.1385C40.3264 25.1971 40.0837 25.1971 40.0625 25.3826C40.145 25.4611 40.1545 25.5877 40.226 25.696C40.3479 25.8914 40.5604 26.1542 40.7543 26.2913C40.9673 26.4482 41.1811 26.6036 41.4053 26.7404C41.8006 26.9756 42.2486 27.1124 42.6338 27.3467C42.8582 27.483 43.0813 27.6593 43.306 27.8061C43.4165 27.8843 43.4872 28.0111 43.6306 28.0601V28.0302C43.5587 27.9424 43.5383 27.8152 43.4679 27.7174L43.1627 27.4344C42.8678 27.0535 42.5013 26.7211 42.1061 26.448C41.7807 26.2324 41.0691 25.9395 40.9371 25.579L40.9164 25.5592C41.1401 25.539 41.4053 25.4611 41.6178 25.4012C41.9635 25.3135 42.2788 25.3334 42.6335 25.2458C42.7968 25.2066 42.9586 25.1574 43.1224 25.109V25.0208C42.9385 24.8448 42.8074 24.611 42.614 24.4446C42.0965 24.0148 41.5264 23.5945 40.9371 23.2427C40.6216 23.0467 40.2157 22.9207 39.8797 22.754C39.7587 22.6952 39.5546 22.6662 39.4834 22.5683C39.3011 22.3533 39.1985 22.0703 39.0663 21.8158C38.7725 21.2788 38.4872 20.6829 38.2336 20.115C38.0503 19.7342 37.9387 19.3539 37.7151 19.0015C36.6678 17.3405 35.5304 16.3345 33.7823 15.3471C33.4066 15.1415 32.9597 15.0538 32.4822 14.9461L31.7197 14.9074C31.557 14.8388 31.3941 14.6529 31.2521 14.565C30.6721 14.2134 29.1789 13.4515 28.7523 14.4575C28.4776 15.0933 29.1588 15.7185 29.3927 16.041C29.5655 16.2649 29.7893 16.5197 29.9101 16.774C29.9817 16.9401 30.0018 17.1164 30.0734 17.2919C30.236 17.7219 30.3881 18.2003 30.6019 18.6016C30.7135 18.8061 30.8351 19.0211 30.9776 19.2063C31.0592 19.3146 31.2012 19.3625 31.2322 19.539C31.0905 19.7337 31.0793 20.0274 30.998 20.2717C30.6324 21.3758 30.7752 22.7436 31.2934 23.555C31.4556 23.7993 31.8424 24.3371 32.3598 24.131C32.8179 23.9552 32.7165 23.3983 32.8481 22.9099C32.8783 22.792 32.8585 22.7145 32.9194 22.6371V22.6562C33.0611 22.9296 33.2042 23.193 33.3356 23.4671C33.6509 23.9455 34.1999 24.4441 34.6572 24.7755C34.9006 24.9523 35.0935 25.2547 35.3985 25.3627V25.3334H35.3783C35.3166 25.2458 35.2263 25.2066 35.1452 25.1385C34.9618 24.9625 34.7589 24.7475 34.6166 24.5524C34.1906 24.0049 33.8136 23.3988 33.479 22.7734C33.3152 22.47 33.174 22.1383 33.0421 21.8354C32.9806 21.7185 32.9806 21.5422 32.8786 21.4833C32.7257 21.6981 32.5029 21.8841 32.3914 22.1472C32.198 22.5681 32.1778 23.0857 32.106 23.624L32.066 23.6429C31.7423 23.5647 31.6297 23.2427 31.5067 22.9693C31.2023 22.2751 31.1512 21.1608 31.4153 20.3599C31.486 20.1551 31.7921 19.51 31.6699 19.3149C31.6087 19.1279 31.4052 19.0214 31.2937 18.8741C31.1626 18.6889 31.019 18.4546 30.9276 18.249C30.6838 17.702 30.5611 17.096 30.2986 16.5493C30.1759 16.2945 29.9629 16.0308 29.7904 15.7962C29.5967 15.5325 29.3837 15.3468 29.2306 15.0342C29.18 14.9267 29.109 14.7509 29.1903 14.634C29.2102 14.5556 29.2515 14.5263 29.3326 14.5066C29.4643 14.3997 29.8405 14.5357 29.9724 14.5945C30.3492 14.741 30.6642 14.8778 30.9787 15.0829C31.121 15.181 31.2736 15.3667 31.4561 15.4156H31.6699C31.9945 15.4836 32.3604 15.4344 32.6659 15.5229C33.2042 15.6892 33.692 15.9333 34.1294 16.1967C35.4605 17.0083 36.5582 18.1616 37.2992 19.539C37.4208 19.7635 37.4725 19.9691 37.5835 20.2032C37.7976 20.6824 38.0622 21.171 38.2747 21.64C38.4883 22.0991 38.6917 22.5678 38.9967 22.9492C39.1488 23.1543 39.7598 23.2618 40.0337 23.3693C40.2364 23.4569 40.5519 23.5348 40.7347 23.6423C41.0805 23.8472 41.4249 24.0823 41.75 24.3075C41.9118 24.4247 42.4205 24.669 42.4507 24.8647ZM32.0845 16.373C31.9442 16.3716 31.8043 16.3881 31.6686 16.4221V16.4418H31.6882C31.77 16.5979 31.9123 16.7062 32.0138 16.8425C32.0957 16.9992 32.1667 17.1545 32.2469 17.311L32.2665 17.2916C32.4099 17.194 32.4811 17.0376 32.4811 16.803C32.4194 16.7339 32.4099 16.6664 32.3585 16.5979C32.2986 16.5001 32.1667 16.4514 32.0845 16.373Z" fill="white"/>
<path d="M43.4186 35.6598H43.6291V34.669H43.3133L43.0557 35.3451L42.7758 34.669H42.4716V35.6598H42.6705V34.9059H42.6816L42.9749 35.6598H43.1264L43.4186 34.9059V35.6598ZM41.7224 35.6598H41.9452V34.8369H42.2369V34.6687H41.4186V34.8369H41.7219L41.7224 35.6598Z" fill="white"/>
</svg>
