<svg width="48" height="48" viewBox="0 0 48 48" fill="none" xmlns="http://www.w3.org/2000/svg">
<g clip-path="url(#clip0_169_6)">
<path d="M23.9959 48C23.3539 48 22.7139 47.832 22.1519 47.506L16.2799 44.032C15.4039 43.542 15.8319 43.368 16.1199 43.266C17.2899 42.86 17.5259 42.766 18.7759 42.058C18.9059 41.984 19.0779 42.012 19.2119 42.092L23.7239 44.77C23.8879 44.86 24.1179 44.86 24.2679 44.77L41.8579 34.618C42.0219 34.524 42.1259 34.336 42.1259 34.142V13.842C42.1259 13.644 42.0199 13.458 41.8519 13.358L24.2699 3.21401C24.1079 3.12001 23.8919 3.12001 23.7279 3.21401L6.14994 13.36C5.97994 13.458 5.87194 13.65 5.87194 13.842V34.142C5.87194 34.336 5.97994 34.52 6.14994 34.612L10.9679 37.396C13.5819 38.704 15.1839 37.164 15.1839 35.616V15.574C15.1839 15.29 15.4119 15.068 15.6959 15.068H17.9259C18.2039 15.068 18.4359 15.292 18.4359 15.574V35.616C18.4359 39.106 16.5359 41.106 13.2279 41.106C12.2119 41.106 11.4099 41.106 9.17594 40.004L4.55994 37.35C3.41994 36.692 2.71594 35.46 2.71594 34.142V13.842C2.71594 12.524 3.42194 11.292 4.55994 10.636L22.1499 0.472012C23.2639 -0.157988 24.7419 -0.157988 25.8459 0.472012L43.4339 10.636C44.5739 11.294 45.2819 12.524 45.2819 13.842V34.142C45.2819 35.46 44.5739 36.688 43.4339 37.35L25.8459 47.506C25.2859 47.832 24.6479 48 23.9959 48ZM38.1979 27.986C38.1979 24.186 35.6299 23.174 30.2239 22.46C24.7619 21.738 24.2059 21.364 24.2059 20.086C24.2059 19.03 24.6759 17.62 28.7219 17.62C32.3359 17.62 33.6679 18.398 34.2159 20.834C34.2639 21.064 34.4739 21.232 34.7099 21.232H36.9919C37.1339 21.232 37.2679 21.17 37.3639 21.07C37.4599 20.962 37.5119 20.824 37.4979 20.678C37.1439 16.482 34.3559 14.526 28.7219 14.526C23.7059 14.526 20.7139 16.642 20.7139 20.192C20.7139 24.042 23.6899 25.106 28.5039 25.582C34.2639 26.146 34.7099 26.988 34.7099 28.12C34.7099 30.086 33.1319 30.924 29.4259 30.924C24.7719 30.924 23.7479 29.756 23.4039 27.44C23.3639 27.192 23.1519 27.01 22.8979 27.01H20.6239C20.3419 27.01 20.1159 27.234 20.1159 27.516C20.1159 30.48 21.7279 34.012 29.4259 34.012C35.0019 34.014 38.1979 31.82 38.1979 27.986Z" fill="white"/>
</g>
<defs>
<clipPath id="clip0_169_6">
<rect width="48" height="48" fill="white"/>
</clipPath>
</defs>
</svg>
