<svg width="96" height="96" viewBox="0 0 96 96" fill="none" xmlns="http://www.w3.org/2000/svg">
<path d="M31.9834 52.5669C28.4744 53.5628 26.1723 55.3088 24.6558 57.0535C26.1083 55.7824 28.0539 54.6158 30.6785 53.8718C33.3629 53.111 35.653 53.1165 37.5453 53.4816V52.0019C35.9311 51.8543 34.0804 51.9719 31.9834 52.5669ZM24.4954 40.1278L11.4636 43.5611C11.4636 43.5611 11.7011 43.8966 12.1408 44.3442L23.1902 41.4327C23.1902 41.4327 23.0336 43.4503 21.6739 45.2551C24.2459 43.3092 24.4954 40.1278 24.4954 40.1278ZM35.4039 70.7548C17.0646 75.6943 7.36193 54.441 4.42435 43.4097C3.06715 38.3177 2.47469 34.4613 2.31678 31.9726C2.29981 31.7142 2.30765 31.4964 2.32592 31.2968C1.37458 31.3542 0.919115 31.8487 1.01178 33.2778C1.16969 35.7651 1.76216 39.6213 3.11936 44.7149C6.05563 55.7445 15.7596 76.9978 34.099 72.0584C38.0908 70.983 41.0897 69.0243 43.3409 66.5239C41.2659 68.398 38.6689 69.8739 35.4039 70.7548ZM38.8502 27.1206V28.4258H46.0436C45.896 27.9637 45.7473 27.5473 45.5997 27.1206H38.8502Z" fill="#2D4552"/>
<path d="M47.6516 37.8694C50.8866 38.7881 52.5976 41.0562 53.5019 43.0634L57.1089 44.0878C57.1089 44.0878 56.6169 37.0631 50.2628 35.2582C44.3185 33.5693 40.6605 38.561 40.2156 39.207C41.9448 37.975 44.4699 36.9664 47.6516 37.8694ZM76.3643 43.0958C70.4146 41.3993 66.758 46.4014 66.3196 47.0383C68.0501 45.8078 70.5739 44.7988 73.7542 45.7059C76.984 46.6261 78.6936 48.8914 79.6007 50.9L83.2129 51.9282C83.2129 51.9282 82.7129 44.9021 76.3643 43.0958ZM72.7807 61.6178L42.7748 53.2293C42.7748 53.2293 43.0996 54.8762 44.346 57.0087L69.6096 64.0714C71.6895 62.868 72.7807 61.6178 72.7807 61.6178ZM51.9775 79.6739C28.2187 73.304 31.091 43.0321 34.9355 28.6873C36.5184 22.7757 38.1458 18.3818 39.4953 15.4364C38.6901 15.2707 38.0232 15.6948 37.3642 17.035C35.9313 19.9413 34.099 24.6732 32.3257 31.2974C28.4823 45.6419 25.6099 75.9128 49.3677 82.2827C60.5659 85.2827 69.2896 80.7231 75.7927 73.5625C69.62 79.1533 61.739 82.2878 51.9775 79.6739Z" fill="#2D4552"/>
<path d="M38.8504 63.6607V57.552L21.8777 62.3648C21.8777 62.3648 23.1318 55.0778 31.9836 52.5668C34.668 51.806 36.9584 51.8112 38.8504 52.1766V27.1205H47.3487C46.4234 24.2612 45.5283 22.0599 44.7765 20.5303C43.5328 17.9986 42.2579 19.6769 39.3635 22.0977C37.3249 23.8008 32.1728 27.4339 24.4199 29.5231C16.6668 31.6136 10.3989 31.0592 7.78366 30.6063C4.07613 29.9667 2.13689 29.1525 2.31831 31.9725C2.47619 34.4598 3.06869 38.3163 4.42588 43.4096C7.36213 54.4395 17.0661 75.6928 35.4054 70.7534C40.1959 69.4626 43.5772 66.9113 45.921 63.6594H38.8504V63.6607ZM11.4625 43.561L24.4956 40.1277C24.4956 40.1277 24.1157 45.1415 19.2298 46.4295C14.3426 47.7162 11.4625 43.561 11.4625 43.561Z" fill="white"/>
<path d="M87.9003 27.41C84.5125 28.0039 76.3848 28.7438 66.3404 26.0515C56.2932 23.3608 49.627 18.6548 46.9859 16.4428C43.2419 13.3069 41.595 11.1275 39.9742 14.424C38.5413 17.3315 36.7089 22.0635 34.9353 28.6877C31.0922 43.0322 28.2199 73.3031 51.9774 79.6729C75.7299 86.0374 88.3752 58.3842 92.2186 44.0384C93.9922 37.4155 94.7699 32.4004 94.9839 29.1667C95.2279 25.5036 92.7118 26.5669 87.9003 27.41ZM40.1672 39.2778C40.1672 39.2778 43.9112 33.4548 50.2613 35.2596C56.6154 37.0645 57.1074 44.0893 57.1074 44.0893L40.1672 39.2778ZM55.668 65.408C44.4986 62.1361 42.776 53.2294 42.776 53.2294L72.7805 61.6182C72.7805 61.6168 66.7241 68.6389 55.668 65.408ZM66.2764 47.1038C66.2764 47.1038 70.0152 41.2848 76.3641 43.0948C82.7128 44.9024 83.2127 51.9272 83.2127 51.9272L66.2764 47.1038Z" fill="white"/>
<path d="M32.9196 59.2341L21.878 62.3635C21.878 62.3635 23.0774 55.5306 31.2114 52.8228L24.9591 29.3589L24.4188 29.5231C16.6658 31.6139 10.3979 31.0592 7.78268 30.6063C4.07517 29.967 2.13594 29.1525 2.31733 31.9728C2.47524 34.4601 3.06771 38.3163 4.4249 43.4098C7.36117 54.4395 17.0652 75.6928 35.4044 70.7534L35.9447 70.5837L32.9196 59.2341ZM11.4628 43.5612L24.4959 40.1277C24.4959 40.1277 24.116 45.1415 19.2302 46.4295C14.3429 47.7162 11.4628 43.5612 11.4628 43.5612Z" fill="white"/>
<path d="M56.1718 65.5305L55.6666 65.4077C44.4973 62.1361 42.7746 53.2294 42.7746 53.2294L58.2468 57.5542L66.4381 26.0776L66.339 26.0515C56.2918 23.3608 49.626 18.6548 46.9845 16.4428C43.2405 13.3069 41.5936 11.1275 39.9728 14.424C38.5413 17.3315 36.7089 22.0635 34.9353 28.6877C31.0922 43.0322 28.2199 73.3031 51.9774 79.6727L52.4643 79.7824L56.1718 65.5305ZM40.1672 39.2779C40.1672 39.2779 43.9112 33.4548 50.2613 35.2596C56.6154 37.0645 57.1074 44.0893 57.1074 44.0893L40.1672 39.2779Z" fill="white"/>
<path d="M33.4822 59.0732L30.5211 59.9136C31.2206 63.8572 32.4536 67.6418 34.389 70.9852C34.7258 70.9108 35.0599 70.8469 35.403 70.7529C36.3022 70.5103 37.136 70.2099 37.9388 69.8823C35.7764 66.6734 34.3459 62.9776 33.4822 59.0732ZM32.3259 31.2976C30.8043 36.9769 29.443 45.1514 29.8177 53.3506C30.4884 53.0595 31.1969 52.7883 31.9839 52.565L32.5321 52.4425C31.8638 43.6844 33.3084 34.7597 34.9358 28.6875C35.3483 27.1514 35.7619 25.7226 36.1742 24.3901C35.5101 24.8128 34.795 25.246 33.9805 25.6923C33.4312 27.3877 32.8765 29.2408 32.3259 31.2976Z" fill="white"/>
</svg>
