<svg width="24" height="24" viewBox="0 0 24 24" fill="none" xmlns="http://www.w3.org/2000/svg">
<g clip-path="url(#clip0_142_38)">
<path d="M23.5593 14.7228C23.5456 14.6809 23.5267 14.6409 23.503 14.6037C23.364 14.3405 23.0262 14.2619 22.4956 14.3716C20.8423 14.7127 20.2021 14.5028 19.97 14.3525C21.312 12.3043 22.415 9.8305 23.0111 7.5228C23.2825 6.4721 23.8093 3.9991 23.1333 2.7912C23.0901 2.70853 23.0396 2.62988 22.9824 2.5562C21.693 0.908601 19.8006 0.0248014 17.5098 0.000501403C16.0151 -0.0152986 14.7393 0.346601 14.3937 0.479901C14.2225 0.447953 14.0505 0.420742 13.8778 0.398301C13.4449 0.319911 13.0063 0.277168 12.5664 0.270501C11.3842 0.252101 10.3626 0.534701 9.5166 1.1111C8.6593 0.790001 4.7278 -0.533898 2.2947 1.1899C0.935801 2.1526 0.308501 3.8733 0.430101 6.3043C0.471001 7.1223 0.937001 9.6383 1.6724 12.0479C2.1322 13.5544 2.6111 14.7498 3.1058 15.6299C3.6588 16.6241 4.2317 17.2232 4.8201 17.4194C5.2675 17.5685 5.9528 17.5635 6.6782 16.6915C7.4794 15.728 8.2685 14.8657 8.6228 14.4846C9.0579 14.7201 9.5292 14.8471 10.0128 14.8618C10.0129 14.8632 10.013 14.8645 10.0132 14.8659C9.92899 14.9662 9.84658 15.068 9.766 15.1713C9.4271 15.6015 9.3566 15.691 8.2658 15.9156C7.9556 15.9796 7.1314 16.1495 7.1194 16.7271C7.1169 16.8495 7.1523 16.958 7.2113 17.0539C7.4382 17.477 8.1329 17.6636 8.2263 17.687C9.5608 18.0205 10.7307 17.779 11.5977 17.0083C11.5807 19.2393 11.6752 21.4257 11.9431 22.0957C12.1643 22.6486 12.7049 24.0002 14.4123 24C14.6628 24 14.9386 23.9709 15.2419 23.9059C17.0238 23.5238 17.7976 22.7363 18.0969 21C18.2472 20.1293 18.4985 18.1247 18.6357 16.8988C18.6526 16.8285 18.6714 16.7781 18.6927 16.7626C18.6934 16.7621 18.7624 16.7155 19.1199 16.7933C19.1345 16.7965 19.1493 16.7987 19.1642 16.8001L19.4181 16.8224L19.433 16.8234C20.2798 16.8618 21.3444 16.6808 21.9642 16.3926C22.608 16.0938 23.7699 15.3603 23.5593 14.7228ZM2.3709 11.8765C1.6274 9.4407 1.193 6.9914 1.1586 6.3046C1.05 4.1332 1.5757 2.6217 2.7209 1.8119C4.5576 0.513301 7.5607 1.2711 8.8289 1.6819C8.8257 1.6851 8.8223 1.688 8.8191 1.6913C6.7953 3.7353 6.8433 7.2273 6.8483 7.4408C6.8481 7.5231 6.8549 7.6397 6.8645 7.8001C6.8993 8.3874 6.9641 9.4805 6.791 10.7185C6.6301 11.8689 6.9847 12.9949 7.7638 13.8077C7.8444 13.8918 7.9286 13.9708 8.0156 14.0451C7.6688 14.4165 6.9152 15.2377 6.1131 16.2027C5.5454 16.8852 5.1534 16.7544 5.0245 16.7114C4.6326 16.5807 4.2115 16.1243 3.7864 15.3891C3.3068 14.5501 2.8229 13.3574 2.3709 11.8765ZM8.3781 16.9636C8.207 16.9208 8.051 16.8504 7.9459 16.7864C8.0348 16.747 8.1833 16.6962 8.4292 16.6455C9.7125 16.3814 9.9107 16.1949 10.3435 15.6453C10.4427 15.5193 10.5551 15.3766 10.7108 15.2027C10.7443 15.1651 10.7694 15.1209 10.7845 15.0729C10.9553 14.9216 11.0569 14.963 11.2214 15.0312C11.3774 15.0958 11.5292 15.2912 11.5909 15.5064C11.62 15.608 11.6528 15.8009 11.5457 15.9508C10.6414 17.2166 9.3241 17.2002 8.3781 16.9636ZM10.4721 12.9756L10.4196 13.1166C10.2866 13.4732 10.1629 13.8047 10.0862 14.1196C9.4188 14.1175 8.7694 13.8324 8.2757 13.3172C7.6478 12.6621 7.3626 11.7508 7.4932 10.8168C7.676 9.5089 7.6085 8.37 7.5722 7.7582C7.5672 7.6725 7.5627 7.5975 7.56 7.5383C7.8557 7.2762 9.2259 6.5421 10.2029 6.7659C10.6488 6.8681 10.9205 7.1716 11.0334 7.6939C11.618 10.3977 11.1108 11.5246 10.7032 12.4302C10.6192 12.6168 10.5399 12.7931 10.4721 12.9756ZM17.8358 17.5481C17.8189 17.7249 17.8 17.9241 17.774 18.144L17.628 18.5823C17.6164 18.617 17.6103 18.6534 17.6098 18.69C17.6039 19.1647 17.5558 19.3389 17.4948 19.5593C17.4314 19.7885 17.3595 20.0484 17.3154 20.6168C17.2054 22.0311 16.4372 22.8435 14.8982 23.1733C13.3827 23.4984 13.1139 22.6765 12.877 21.9516C12.8527 21.8756 12.8271 21.8001 12.8001 21.725C12.5847 21.1392 12.609 20.3131 12.6427 19.1699C12.6592 18.6087 12.6178 17.2686 12.3125 16.5237C12.3169 16.2305 12.3231 15.9328 12.3315 15.6319C12.3325 15.5938 12.3274 15.5558 12.3162 15.5193C12.3065 15.449 12.2919 15.3795 12.2723 15.3113C12.1497 14.883 11.851 14.5247 11.4926 14.3762C11.3502 14.3172 11.0888 14.209 10.7748 14.2893C10.8418 14.0133 10.9579 13.7018 11.0838 13.3644L11.1367 13.2224C11.1962 13.0624 11.2707 12.8967 11.3497 12.7212C11.7762 11.7736 12.3603 10.4759 11.7263 7.544C11.4889 6.4459 10.6959 5.9097 9.4939 6.0342C8.7732 6.1088 8.114 6.3996 7.7851 6.5663C7.71916 6.59972 7.65388 6.63443 7.5893 6.6704C7.6811 5.564 8.0279 3.4963 9.325 2.1881C9.42135 2.09101 9.52258 1.9989 9.6283 1.9121C9.68079 1.90187 9.73026 1.87985 9.773 1.8477C10.5254 1.2771 11.4675 0.997101 12.575 1.0152C12.9841 1.0219 13.3767 1.0491 13.7492 1.0962C15.6882 1.4506 16.9931 2.543 17.7851 3.4789C18.5994 4.4412 19.0403 5.4104 19.2163 5.9332C17.8931 5.7986 16.9929 6.06 16.5366 6.7122C15.544 8.1311 17.0796 10.8851 17.8177 12.2086C17.953 12.4512 18.0699 12.6608 18.1066 12.7499C18.3469 13.3324 18.6581 13.7212 18.8853 14.0051C18.9549 14.0921 19.0225 14.1765 19.0738 14.2501C18.673 14.3656 17.953 14.6326 18.0186 15.9671C18.0063 16.1234 17.9763 16.414 17.9352 16.7819C17.8891 16.9896 17.865 17.2422 17.8358 17.5481ZM18.7263 15.927C18.6858 15.0954 18.9954 15.0085 19.323 14.9165C19.3683 14.9041 19.4133 14.8905 19.458 14.8759C19.5003 14.9133 19.5451 14.9478 19.5922 14.9789C20.1625 15.3554 21.1745 15.4002 22.599 15.1133C22.3974 15.2902 22.0801 15.5127 21.6457 15.7144C21.2359 15.9047 20.55 16.0474 19.8984 16.078C19.1787 16.1116 18.8125 15.9973 18.7263 15.927ZM19.2958 6.6558C19.2899 7.0066 19.2416 7.325 19.1904 7.6575C19.1354 8.0151 19.0784 8.3849 19.064 8.8337C19.0498 9.2705 19.1044 9.7246 19.1572 10.1638C19.2638 11.0508 19.3732 11.9641 18.9497 12.8652C18.8794 12.7406 18.8168 12.6118 18.7621 12.4796C18.7094 12.352 18.5952 12.147 18.437 11.8634C17.8214 10.7593 16.3796 8.1738 17.1177 7.1188C17.4972 6.5761 18.4585 6.5527 19.2958 6.6558ZM19.5242 13.6695C19.496 13.6335 19.4675 13.5977 19.4389 13.5621L19.4034 13.5177C20.1296 12.3182 19.9876 11.1315 19.8612 10.0792C19.8093 9.6474 19.7603 9.2396 19.7727 8.8566C19.7856 8.4505 19.8393 8.1023 19.8912 7.7655C19.9551 7.3505 20.02 6.9212 20.0021 6.415C20.0155 6.3619 20.0209 6.2992 20.0139 6.2248C19.9682 5.7393 19.414 4.2868 18.2845 2.9718C17.6769 2.2645 16.7949 1.4746 15.5956 0.932301C16.1207 0.825701 16.8284 0.728801 17.62 0.746401C19.6715 0.792001 21.2946 1.5599 22.4442 3.0288C22.4686 3.06069 22.4909 3.09416 22.5109 3.129C23.234 4.4846 22.2347 9.4041 19.5242 13.6695ZM10.7076 7.5533C10.6826 7.7327 10.3987 7.9758 10.0865 7.9758C10.0594 7.97582 10.0324 7.97395 10.0056 7.9702C9.8183 7.9442 9.6291 7.8262 9.4997 7.6546C9.4539 7.5941 9.3794 7.4766 9.3942 7.3702C9.3997 7.3301 9.4203 7.2717 9.4867 7.2214C9.6049 7.132 9.8385 7.0988 10.0963 7.1347C10.4126 7.1788 10.7389 7.3285 10.7076 7.5533ZM18.6381 7.1419C18.6492 7.2211 18.5891 7.3429 18.485 7.4521C18.4167 7.5238 18.273 7.6482 18.0771 7.6753C18.0523 7.67876 18.0272 7.68049 18.0021 7.6805C17.7086 7.6805 17.4607 7.4461 17.4414 7.3088C17.4174 7.1323 17.7055 6.9982 18.0025 6.9568C18.2995 6.9154 18.6136 6.9656 18.6381 7.1419Z" fill="white"/>
</g>
<defs>
<clipPath id="clip0_142_38">
<rect width="24" height="24" fill="white"/>
</clipPath>
</defs>
</svg>
