<svg width="24" height="24" viewBox="0 0 24 24" fill="none" xmlns="http://www.w3.org/2000/svg">
<g clip-path="url(#clip0_142_46)">
<path d="M23.174 3.468L15.758 11.79C15.7367 11.8123 15.7111 11.8301 15.6827 11.8422C15.6544 11.8544 15.6238 11.8607 15.593 11.8607C15.5621 11.8607 15.5316 11.8544 15.5032 11.8422C15.4749 11.8301 15.4493 11.8123 15.428 11.79L11.642 7.89C11.6104 7.84981 11.5932 7.80015 11.5932 7.749C11.5932 7.69785 11.6104 7.64819 11.642 7.608L12.872 6C12.8932 5.97145 12.9208 5.94827 12.9526 5.93229C12.9844 5.91632 13.0194 5.908 13.055 5.908C13.0906 5.908 13.1256 5.91632 13.1574 5.93229C13.1892 5.94827 13.2168 5.97145 13.238 6L15.344 8.346C15.3654 8.37026 15.3917 8.38969 15.4212 8.403C15.4507 8.41631 15.4826 8.42319 15.515 8.42319C15.5473 8.42319 15.5793 8.41631 15.6088 8.403C15.6383 8.38969 15.6646 8.37026 15.686 8.346L21.626 0.252C21.6419 0.228218 21.6513 0.200635 21.6531 0.172059C21.6549 0.143483 21.6491 0.114936 21.6363 0.0893257C21.6235 0.063715 21.6042 0.041956 21.5802 0.0262648C21.5563 0.0105736 21.5286 0.00151097 21.5 0L0.715992 0C0.669845 0 0.625587 0.0183321 0.592956 0.0509634C0.560324 0.0835948 0.541992 0.127852 0.541992 0.174V23.826C0.541992 23.8721 0.560324 23.9164 0.592956 23.949C0.625587 23.9817 0.669845 24 0.715992 24H23.282C23.3281 24 23.3724 23.9817 23.405 23.949C23.4377 23.9164 23.456 23.8721 23.456 23.826V3.6C23.4615 3.56528 23.4556 3.52972 23.4391 3.49866C23.4226 3.46761 23.3965 3.44275 23.3647 3.42785C23.3328 3.41295 23.297 3.40881 23.2626 3.41605C23.2282 3.42329 23.1971 3.44153 23.174 3.468ZM6.93199 21.366C5.4459 21.4323 3.99267 20.9156 2.88199 19.926C2.84776 19.8858 2.82895 19.8348 2.82895 19.782C2.82895 19.7292 2.84776 19.6782 2.88199 19.638L3.76399 18.402C3.78215 18.3764 3.80553 18.355 3.83258 18.3391C3.85962 18.3232 3.88973 18.3133 3.9209 18.3099C3.95208 18.3065 3.98363 18.3097 4.01346 18.3194C4.0433 18.3291 4.07074 18.3449 4.09399 18.366C4.89963 19.1135 5.95897 19.5274 7.05799 19.524C8.21599 19.524 8.77999 18.99 8.77999 18.426C8.77999 16.674 3.07999 17.874 3.07999 14.148C3.07999 12.498 4.50799 11.148 6.83599 11.148C8.1815 11.1001 9.4988 11.5413 10.544 12.39C10.5815 12.4309 10.6023 12.4845 10.6023 12.54C10.6023 12.5955 10.5815 12.6491 10.544 12.69L9.63799 13.89C9.61983 13.9137 9.59707 13.9336 9.57106 13.9483C9.54506 13.963 9.51635 13.9723 9.48666 13.9757C9.45696 13.979 9.42689 13.9764 9.39826 13.9678C9.36962 13.9593 9.343 13.9451 9.31999 13.926C8.5518 13.3133 7.59657 12.9829 6.61399 12.99C5.70799 12.99 5.20399 13.392 5.20399 13.986C5.20399 15.558 10.892 14.508 10.892 18.186C10.898 19.998 9.60799 21.366 6.93199 21.366ZM19.37 17.934C19.37 17.9849 19.3498 18.0338 19.3138 18.0698C19.2777 18.1058 19.2289 18.126 19.178 18.126H13.976C13.9676 18.126 13.9593 18.1277 13.9516 18.1311C13.9439 18.1345 13.937 18.1394 13.9313 18.1456C13.9256 18.1519 13.9214 18.1592 13.9187 18.1672C13.9161 18.1752 13.9152 18.1836 13.916 18.192C14.001 18.6778 14.2637 19.1145 14.653 19.4173C15.0422 19.7201 15.5302 19.8672 16.022 19.83C16.6682 19.8126 17.2946 19.6038 17.822 19.23C17.8426 19.2139 17.8663 19.2022 17.8915 19.1956C17.9168 19.189 17.9432 19.1876 17.969 19.1915C17.9949 19.1954 18.0196 19.2046 18.0418 19.2185C18.064 19.2323 18.0831 19.2505 18.098 19.272L18.734 20.202C18.7612 20.2433 18.772 20.2933 18.7643 20.3422C18.7565 20.391 18.7307 20.4352 18.692 20.466C17.8534 21.0762 16.8368 21.3926 15.8 21.366C15.2814 21.3949 14.7626 21.315 14.2767 21.1315C13.7908 20.948 13.3487 20.665 12.9786 20.3006C12.6086 19.9362 12.3188 19.4985 12.1279 19.0155C11.937 18.5325 11.8491 18.0149 11.87 17.496C11.8553 16.9897 11.9435 16.4857 12.1292 16.0145C12.3149 15.5433 12.5944 15.1146 12.9505 14.7545C13.3067 14.3944 13.7323 14.1103 14.2014 13.9194C14.6706 13.7286 15.1736 13.6349 15.68 13.644C17.876 13.644 19.364 15.288 19.364 17.694L19.37 17.934ZM15.686 15.186C15.2449 15.1727 14.815 15.3257 14.4815 15.6147C14.1481 15.9037 13.9355 16.3075 13.886 16.746C13.8852 16.7544 13.8861 16.7628 13.8887 16.7708C13.8914 16.7788 13.8956 16.7861 13.9013 16.7924C13.907 16.7986 13.9139 16.8035 13.9216 16.8069C13.9293 16.8103 13.9376 16.812 13.946 16.812H17.438C17.4464 16.812 17.4547 16.8103 17.4624 16.8069C17.4701 16.8035 17.477 16.7986 17.4827 16.7924C17.4883 16.7861 17.4926 16.7788 17.4953 16.7708C17.4979 16.7628 17.4988 16.7544 17.498 16.746C17.4627 16.2996 17.2525 15.8852 16.9131 15.593C16.5737 15.3008 16.1327 15.1545 15.686 15.186Z" fill="white"/>
</g>
<defs>
<clipPath id="clip0_142_46">
<rect width="24" height="24" fill="white"/>
</clipPath>
</defs>
</svg>
