<svg width="300" height="178" viewBox="0 0 300 178" fill="none" xmlns="http://www.w3.org/2000/svg">
<g clip-path="url(#clip0_150_14)">
<path d="M37.2575 111.887C37.2569 112.659 36.9493 113.399 36.4022 113.946C35.8551 114.492 35.1132 114.799 34.3395 114.799H3.20447C2.43077 114.799 1.68868 114.493 1.14116 113.947C0.593629 113.402 0.285413 112.661 0.284181 111.889V66.3993C0.283875 66.0164 0.359201 65.6372 0.505851 65.2834C0.652502 64.9296 0.867597 64.6081 1.13883 64.3374C1.41007 64.0666 1.73212 63.8519 2.08656 63.7055C2.44101 63.5591 2.82089 63.4839 3.20447 63.4843H23.1862L37.2575 77.8089V111.887Z" fill="#23A566"/>
<path d="M24.7346 77.4352L37.2575 89.3832V77.7253H26.1645C25.6802 77.7308 25.2028 77.6109 24.7788 77.3772L24.7346 77.4352Z" fill="#1C8F5A"/>
<path d="M37.2574 77.7856H26.1343C25.3606 77.785 24.6187 77.4779 24.0716 76.9318C23.5245 76.3857 23.2169 75.6452 23.2163 74.8728V63.4053L37.2574 77.7856Z" fill="#8ED1B1"/>
<path fill-rule="evenodd" clip-rule="evenodd" d="M28.3547 105.339H9.11475V88.6869H28.3547V105.339ZM19.931 91.089V94.0041H25.9901V91.0937L19.931 91.089ZM19.931 95.8399V98.625H25.9901V95.826L19.931 95.8399ZM19.931 100.4V102.979H25.9901V100.387L19.931 100.4ZM17.5524 102.965V100.387H11.4956V102.965H17.5524ZM17.5524 98.5948V95.826H11.4956V98.6087L17.5524 98.5948ZM17.5524 94.0342V91.089H11.4956V94.0041L17.5524 94.0342Z" fill="white"/>
<path d="M103.09 89.1558C103.09 85.5027 100.332 83.0054 97.1304 83.0054C93.9288 83.0054 91.1689 85.5027 91.1689 89.1558C91.1689 92.7717 93.9288 95.3062 97.1304 95.3062C100.332 95.3062 103.09 92.7671 103.09 89.1558ZM107.73 89.1558C107.73 94.9998 102.971 99.3074 97.1281 99.3074C91.2875 99.3074 86.528 94.9998 86.528 89.1558C86.528 83.27 91.2875 79.0042 97.1304 79.0042C102.971 79.0042 107.73 83.27 107.73 89.1558ZM125.957 89.1558C125.957 85.5027 123.199 83.0054 119.997 83.0054C116.796 83.0054 114.038 85.5027 114.038 89.1558C114.038 92.7717 116.796 95.3062 119.997 95.3062C123.199 95.3062 125.957 92.7671 125.957 89.1558ZM130.597 89.1558C130.597 94.9998 125.838 99.3074 119.997 99.3074C114.157 99.3074 109.395 94.9998 109.395 89.1558C109.395 83.2746 114.157 79.0042 119.997 79.0042C125.838 79.0042 130.597 83.27 130.597 89.1558ZM148.438 89.1906C148.438 85.6164 145.955 83.0031 142.797 83.0031C139.593 83.0031 136.912 85.6164 136.912 89.1906C136.912 92.73 139.593 95.3062 142.795 95.3062C145.955 95.3062 148.438 92.7276 148.438 89.1906ZM152.516 79.6169V97.8429C152.516 105.339 147.912 108.403 142.472 108.403C140.494 108.435 138.551 107.885 136.885 106.821C135.22 105.756 133.905 104.226 133.106 102.42L137.145 100.804C137.866 102.457 139.628 104.406 142.469 104.406C145.95 104.406 148.108 102.341 148.108 98.4556V96.9935H147.945C146.908 98.2259 144.906 99.3028 142.381 99.3028C137.098 99.3028 132.258 94.8814 132.258 89.1929C132.258 83.4603 137.098 79.0042 142.381 79.0042C144.901 79.0042 146.903 80.0787 147.947 81.274H148.11V79.6215H152.516V79.6169ZM159.782 68.9291H155.255V98.6831H159.779L159.782 68.9291ZM166.332 88.8401L175.776 85.0733C175.257 83.8038 173.693 82.9218 171.856 82.9218C169.496 82.9218 166.213 84.9225 166.332 88.8401ZM177.42 92.4909L181.021 94.7979C180.03 96.2055 178.711 97.351 177.176 98.1351C175.642 98.9192 173.94 99.3184 172.216 99.2981C166.213 99.2981 161.73 94.842 161.73 89.1465C161.73 83.1098 166.252 78.9949 171.698 78.9949C177.18 78.9949 179.863 83.1864 180.742 85.4516L181.221 86.6051L167.094 92.2263C168.175 94.2641 169.859 95.3015 172.216 95.3015C174.581 95.3015 176.218 94.1852 177.42 92.4909ZM69.3946 86.51V82.2024H84.5029C84.6494 82.952 84.7261 83.8409 84.7261 84.8018C84.7261 88.0325 83.8077 92.029 80.8432 94.8745C77.9602 97.7594 74.2772 99.2981 69.3992 99.2981C60.3547 99.2981 52.7517 92.2194 52.7517 83.5346C52.7517 74.8497 60.3547 67.771 69.3992 67.771C74.4028 67.771 77.9648 69.6556 80.6433 72.1134L77.4812 75.1538C75.5607 73.4224 72.9589 72.0786 69.3946 72.0786C62.7914 72.0786 57.6274 77.1892 57.6274 83.5346C57.6274 89.8799 62.7914 94.9905 69.3946 94.9905C73.6774 94.9905 76.1164 93.338 77.6788 91.8364C78.9483 90.6179 79.7807 88.8796 80.1108 86.5053L69.3946 86.51ZM208.383 92.4329C208.383 94.784 207.518 96.6732 205.79 98.0982C204.035 99.5 201.907 100.201 199.401 100.201C197.169 100.201 195.204 99.5511 193.5 98.2491C191.796 96.9494 190.617 95.1716 189.966 92.9203L193.274 91.5718C193.5 92.3702 193.812 93.0967 194.214 93.7465C194.614 94.3964 195.079 94.9603 195.604 95.4361C196.155 95.8864 196.757 96.2485 197.408 96.5223C198.059 96.773 198.748 96.8983 199.475 96.8983C201.054 96.8983 202.345 96.4991 203.347 95.6984C204.349 94.8722 204.851 93.7837 204.851 92.4329C204.851 91.3073 204.437 90.3441 203.609 89.5457C202.833 88.7705 201.38 88.0185 199.25 87.2944C197.095 86.5192 195.755 85.9947 195.228 85.7162C192.372 84.268 190.942 82.1281 190.942 79.3012C190.942 77.3261 191.733 75.6388 193.312 74.237C194.916 72.8375 196.883 72.1366 199.213 72.1366C201.268 72.1366 203.047 72.6611 204.549 73.7125C206.053 74.7383 207.055 76.0264 207.557 77.5768L204.326 78.9276C204.021 77.9221 203.384 77.0492 202.519 76.4512C201.642 75.7758 200.566 75.4369 199.287 75.4369C197.934 75.4369 196.795 75.8129 195.869 76.5626C194.939 77.2635 194.474 78.1756 194.474 79.3012C194.474 80.2296 194.839 81.028 195.567 81.7034C196.369 82.3764 198.111 83.1795 200.791 84.1055C203.521 85.0292 205.465 86.1688 206.616 87.5172C207.795 88.8448 208.383 90.4833 208.383 92.4329ZM211.945 72.7354H215.402V81.216L215.251 83.769H215.402C215.928 82.8661 216.73 82.1165 217.809 81.5177C218.853 80.9317 220.03 80.621 221.229 80.6149C223.482 80.6149 225.212 81.2647 226.414 82.5644C227.641 83.8409 228.255 85.6675 228.255 88.0417V99.5998H224.798V88.7195C224.798 85.4168 223.333 83.7666 220.401 83.7666C218.997 83.7666 217.809 84.3538 216.83 85.5305C215.883 86.6669 215.376 88.1049 215.402 89.5828V99.5998H211.945V72.7354ZM240.585 100.201C237.879 100.201 235.649 99.2726 233.894 97.4228C232.14 95.5731 231.264 93.2336 231.264 90.4067C231.264 87.6054 232.115 85.2799 233.819 83.4301C235.523 81.5525 237.702 80.6149 240.36 80.6149C243.089 80.6149 245.258 81.5038 246.86 83.2793C248.49 85.0292 249.304 87.494 249.304 90.669L249.267 91.045H234.796C234.847 92.846 235.447 94.2966 236.6 95.3967C237.753 96.4968 239.132 97.0492 240.734 97.0492C242.94 97.0492 244.668 95.9491 245.921 93.7465L249.004 95.2481C248.214 96.7591 247.016 98.0195 245.547 98.8873C244.091 99.7623 242.438 100.201 240.585 100.201ZM235.058 88.1949H245.621C245.585 87.5904 245.426 86.9995 245.155 86.4578C244.883 85.9162 244.505 85.4349 244.042 85.0431C243.115 84.1914 241.862 83.7666 240.283 83.7666C238.981 83.7666 237.853 84.1658 236.9 84.9666C235.974 85.7673 235.361 86.8465 235.058 88.1949ZM260.92 100.201C258.214 100.201 255.982 99.2726 254.229 97.4228C252.475 95.5731 251.597 93.2336 251.597 90.4067C251.597 87.6054 252.45 85.2799 254.154 83.4301C255.858 81.5525 258.037 80.6149 260.695 80.6149C263.424 80.6149 265.591 81.5038 267.196 83.2793C268.825 85.0292 269.639 87.494 269.639 90.669L269.602 91.045H255.131C255.182 92.846 255.782 94.2966 256.935 95.3967C258.088 96.4968 259.465 97.0492 261.069 97.0492C263.275 97.0492 265.003 95.9491 266.256 93.7465L269.339 95.2481C268.549 96.7597 267.35 98.0202 265.88 98.8873C264.426 99.7623 262.773 100.201 260.92 100.201ZM255.393 88.1949H265.956C265.92 87.5904 265.761 86.9995 265.49 86.4578C265.219 85.9162 264.84 85.4349 264.378 85.0431C263.45 84.1914 262.197 83.7666 260.618 83.7666C259.316 83.7666 258.188 84.1658 257.235 84.9666C256.31 85.7673 255.693 86.8465 255.393 88.1949ZM279.542 99.8992C278.04 99.8992 276.786 99.435 275.784 98.5113C274.805 97.5853 274.306 96.2972 274.28 94.647V84.3654H271.048V81.216H274.28V75.5878H277.737V81.216H282.248V84.3678H277.737V93.5214C277.737 94.7468 277.977 95.587 278.454 96.0349C278.928 96.4596 279.467 96.6732 280.069 96.6732C280.344 96.6732 280.607 96.65 280.858 96.5989C281.134 96.5223 281.383 96.4364 281.609 96.3366L282.699 99.4118C281.797 99.7368 280.746 99.8992 279.542 99.8992ZM300 94.4962C300 96.0976 299.298 97.4484 297.896 98.5485C296.491 99.6486 294.724 100.201 292.595 100.201C290.742 100.201 289.112 99.7252 287.71 98.7736C286.336 97.8376 285.286 96.5009 284.703 94.9464L287.784 93.6351C288.235 94.7352 288.886 95.5986 289.739 96.2229C290.616 96.824 291.567 97.1234 292.595 97.1234C293.699 97.1234 294.613 96.8867 295.338 96.4109C296.092 95.9351 296.466 95.3735 296.466 94.7213C296.466 93.5469 295.564 92.6835 293.759 92.1335L290.604 91.3444C287.019 90.4462 285.229 88.7194 285.229 86.1688C285.229 84.4931 285.905 83.1539 287.259 82.1536C288.637 81.1278 290.39 80.6149 292.52 80.6149C294.148 80.6149 295.615 81.0025 296.917 81.7776C298.247 82.5528 299.172 83.5926 299.7 84.8923L296.617 86.1688C296.262 85.3895 295.652 84.7542 294.887 84.3678C294.087 83.9113 293.179 83.6781 292.258 83.6924C291.355 83.6924 290.542 83.9175 289.814 84.3654C289.112 84.818 288.761 85.3681 288.761 86.0179C288.761 87.0693 289.751 87.8189 291.732 88.2692L294.513 88.9817C298.17 89.8822 300 91.7204 300 94.4962Z" fill="white"/>
</g>
<defs>
<clipPath id="clip0_150_14">
<rect width="300" height="178" fill="white"/>
</clipPath>
</defs>
</svg>
